<?xml version="1.0" standalone="no"?>
<!DOCTYPE svg PUBLIC "-//W3C//DTD SVG 20010904//EN"
 "http://www.w3.org/TR/2001/REC-SVG-20010904/DTD/svg10.dtd">
<svg version="1.0" xmlns="http://www.w3.org/2000/svg"
 width="589.000000pt" height="439.000000pt" viewBox="0 0 589.000000 439.000000"
 preserveAspectRatio="xMidYMid meet">

<g transform="translate(0.000000,439.000000) scale(0.100000,-0.100000)"
fill="#000000" stroke="none">
<path d="M2720 4223 c0 -12 79 -139 94 -153 26 -21 18 -39 -19 -46 -33 -6
-259 0 -455 12 l-95 6 -30 -32 -30 -32 26 -21 c14 -12 47 -39 73 -61 26 -21
44 -42 39 -46 -11 -10 -177 -48 -270 -61 -109 -16 -263 -4 -370 27 -49 15 -96
29 -107 32 -50 14 51 -101 130 -149 75 -46 100 -66 92 -74 -3 -4 -37 -15 -75
-25 -37 -10 -120 -32 -183 -49 -139 -37 -240 -40 -379 -11 -52 11 -96 18 -99
15 -15 -15 113 -95 271 -169 78 -38 91 -49 60 -59 -10 -3 -56 -19 -102 -36
-137 -51 -204 -63 -346 -64 -102 0 -149 4 -219 21 -49 12 -91 20 -94 18 -8 -9
40 -66 82 -99 24 -17 77 -52 119 -77 42 -25 77 -50 77 -56 0 -13 -214 -78
-350 -106 -71 -15 -114 -18 -173 -13 -64 5 -77 4 -77 -9 0 -18 132 -107 194
-131 25 -10 46 -23 46 -30 0 -15 -141 -107 -218 -141 -38 -17 -83 -28 -134
-31 l-78 -6 0 -61 c0 -82 -5 -79 252 -156 43 -13 78 -29 78 -35 0 -6 -20 -31
-45 -55 -25 -24 -45 -47 -45 -51 0 -3 26 0 58 7 31 8 62 14 69 14 15 0 9 -120
-14 -252 -9 -54 -14 -100 -12 -102 2 -2 36 4 74 14 39 10 126 21 194 25 l124
7 -7 -43 c-4 -24 -11 -93 -15 -154 -6 -76 -18 -141 -39 -210 -17 -55 -29 -101
-27 -104 3 -2 35 17 72 42 38 26 88 50 113 56 66 13 237 23 242 14 2 -4 2 -71
-1 -148 l-6 -140 -48 -78 c-27 -44 -46 -81 -44 -83 2 -3 40 9 83 25 44 16 122
36 174 44 171 27 280 40 287 33 4 -4 1 -35 -6 -69 -7 -34 -15 -100 -17 -147
-5 -111 -11 -143 -37 -196 -11 -24 -18 -46 -15 -49 3 -3 26 6 51 21 42 23 63
27 199 34 84 5 163 9 176 10 22 0 22 -2 22 -117 0 -65 7 -149 15 -186 19 -93
69 -231 105 -292 16 -27 44 -76 62 -107 18 -32 36 -58 39 -58 12 0 19 45 19
135 0 102 23 203 64 286 28 55 111 149 132 149 7 0 40 -52 73 -114 34 -63 66
-118 71 -121 6 -4 10 22 10 68 0 120 35 301 74 384 30 63 107 163 125 163 4 0
33 -44 65 -98 32 -55 69 -112 82 -128 l24 -29 -8 70 c-19 185 -1 338 53 450
29 61 116 170 134 170 8 0 37 -52 68 -120 73 -163 78 -167 86 -63 4 46 7 118
7 161 0 47 6 90 15 110 31 68 121 202 135 202 8 0 40 -37 70 -82 74 -110 77
-113 84 -72 43 264 70 388 93 429 38 64 150 170 218 207 167 88 311 84 429
-13 80 -64 82 -71 46 -146 -28 -59 -38 -98 -24 -98 3 0 24 11 47 24 54 31 126
41 151 23 17 -13 18 -19 7 -78 -11 -58 -10 -69 8 -112 23 -54 41 -61 41 -17 0
25 10 38 62 78 281 215 279 213 289 308 6 64 8 66 78 138 l71 74 0 106 c0 123
11 120 -115 32 -44 -31 -86 -56 -93 -56 -8 0 -32 20 -54 45 -22 25 -44 45 -50
45 -5 0 -24 -11 -42 -25 -18 -14 -35 -25 -39 -25 -6 0 -32 79 -42 128 l-7 32
-51 -29 c-29 -16 -73 -32 -98 -36 l-46 -7 -11 57 c-10 49 -45 125 -57 125 -2
0 -21 -11 -41 -25 -66 -45 -72 -39 -89 73 -4 23 -8 42 -9 42 -2 0 -29 -9 -60
-20 -54 -18 -60 -18 -89 -4 -71 36 -92 76 -66 127 16 31 71 87 84 87 7 0 17
-18 24 -40 14 -47 53 -95 83 -103 17 -5 32 4 67 43 26 28 51 50 57 50 6 0 18
-16 27 -35 9 -19 33 -52 53 -75 51 -57 76 -54 144 15 30 30 60 55 66 55 7 0
22 -32 33 -70 12 -39 28 -73 36 -76 7 -3 43 17 80 45 36 28 70 51 75 51 18 0
52 -62 59 -108 6 -42 9 -47 31 -44 59 6 133 35 167 65 l36 32 -7 -40 c-4 -22
-18 -63 -32 -92 -29 -62 -30 -76 -6 -69 9 3 50 13 90 22 63 15 78 23 116 63
35 39 63 92 82 158 1 6 22 20 46 31 50 22 67 40 99 104 14 27 42 60 67 78 50
36 72 70 107 161 15 39 40 79 60 99 35 34 35 35 35 122 l0 88 -115 0 c-109 0
-121 2 -207 36 -121 47 -250 80 -433 109 -209 34 -201 32 -227 73 -33 55 -138
162 -178 181 -46 23 -93 36 -220 61 -58 12 -118 25 -135 30 -16 5 -124 32
-240 60 -115 27 -243 60 -283 71 l-73 21 -72 -22 c-133 -41 -181 -49 -293 -50
-142 0 -367 45 -446 90 -20 11 -208 14 -208 3z m430 -163 c139 -19 329 3 465
55 81 31 125 30 278 -6 76 -18 87 -23 71 -32 -10 -6 -50 -12 -89 -14 -82 -2
-79 -2 -74 -7 4 -4 130 -18 398 -46 102 -10 178 -34 174 -55 -2 -5 -47 -29
-100 -52 -111 -48 -105 -51 67 -32 87 9 111 9 168 -6 37 -9 78 -23 90 -31 32
-21 68 -102 52 -118 -7 -7 -131 -16 -365 -25 -195 -8 -355 -18 -355 -21 0 -4
30 -12 67 -19 67 -12 69 -14 168 -110 75 -72 111 -100 143 -109 23 -7 42 -16
42 -20 0 -4 -42 -29 -93 -56 -143 -76 -368 -206 -405 -234 -21 -16 -47 -54
-72 -106 -47 -100 -93 -226 -81 -226 24 0 53 41 70 100 10 36 28 83 39 105 71
138 373 315 611 360 46 8 86 16 90 16 3 1 -7 5 -24 9 -28 6 -21 11 105 74 234
115 393 154 589 143 118 -7 187 -23 267 -62 63 -31 143 -101 185 -162 27 -38
35 -44 62 -41 30 3 32 6 29 36 -3 27 0 32 17 32 27 0 27 -1 -8 -69 -16 -31
-39 -78 -51 -104 -12 -26 -42 -64 -65 -84 -30 -25 -47 -49 -55 -78 -26 -91
-99 -135 -230 -135 -111 0 -198 30 -396 137 -163 87 -240 122 -324 148 -89 27
-88 26 -61 36 50 20 10 17 -137 -9 -147 -26 -154 -29 -213 -72 -80 -58 -315
-294 -363 -364 l-38 -54 19 -51 c17 -50 33 -67 33 -35 0 67 76 202 100 178 5
-5 30 -45 55 -89 51 -87 49 -89 28 40 l-6 40 79 -75 c126 -119 393 -291 692
-445 72 -37 132 -72 132 -78 0 -6 -16 -54 -36 -107 -41 -107 -64 -133 -158
-180 -33 -17 -60 -29 -62 -27 -1 1 6 38 16 82 11 44 19 84 20 89 0 4 -18 -8
-40 -28 -41 -37 -41 -37 -121 -34 l-81 3 -31 85 c-31 82 -34 86 -95 127 -34
23 -79 47 -100 53 -88 24 -213 4 -332 -53 -101 -49 -181 -135 -272 -297 -112
-197 -104 -193 -111 -56 -7 114 7 226 34 278 5 9 40 33 78 53 125 66 196 147
189 216 -3 28 -5 26 -43 -38 -37 -63 -46 -71 -114 -105 -77 -38 -158 -62 -250
-74 l-54 -7 8 34 c4 19 9 93 11 166 2 127 3 134 32 180 38 63 57 116 49 138
-6 15 -11 13 -45 -13 -20 -16 -46 -34 -57 -39 -19 -10 -239 -55 -337 -69 l-48
-6 16 48 c9 29 19 106 23 184 5 98 11 144 24 169 9 19 17 38 17 42 0 5 -30 -7
-67 -26 -67 -34 -69 -34 -218 -37 l-150 -3 0 145 c0 142 1 146 29 193 16 26
27 50 25 52 -2 2 -38 -4 -79 -12 -81 -17 -154 -11 -312 24 -90 21 -88 10 -24
142 30 62 49 89 73 104 23 13 33 26 33 44 0 24 -3 22 -56 -27 -31 -28 -62 -49
-68 -47 -6 2 -90 30 -186 62 -96 32 -179 61 -185 66 -5 5 8 9 32 9 137 0 535
60 615 93 l32 13 -64 24 c-84 30 -174 77 -197 102 -18 20 -18 20 32 14 83 -10
580 -19 629 -12 48 8 59 20 27 31 -29 9 -121 98 -121 117 0 13 16 11 103 -17
56 -19 140 -39 187 -45z m1662 -339 l49 -53 73 7 c40 3 85 3 101 -1 24 -6 7
-12 -95 -35 -69 -15 -167 -41 -219 -58 -51 -17 -95 -31 -97 -31 -1 0 6 23 18
50 21 51 30 56 70 41 80 -29 107 -16 39 19 l-40 20 6 53 c4 39 1 63 -11 88
l-17 34 37 -40 c21 -22 59 -64 86 -94z m-220 -59 c23 -23 20 -55 -9 -91 -18
-22 -19 -22 -58 -5 -22 9 -80 27 -129 41 -148 39 -153 57 -18 71 133 14 189
10 214 -16z m-331 -41 c107 -21 273 -92 267 -113 -2 -7 -25 -24 -51 -37 -41
-20 -53 -22 -88 -13 -56 14 -139 66 -212 134 -50 47 -57 57 -37 53 14 -3 68
-13 121 -24z m-2371 -46 c0 -3 -12 -23 -26 -44 -14 -22 -36 -66 -50 -98 -13
-32 -27 -57 -31 -57 -5 1 -90 14 -190 30 -101 15 -181 29 -179 31 2 2 45 10
96 19 103 16 206 48 302 93 65 30 78 35 78 26z m272 -11 l46 -6 -64 -94 c-35
-52 -64 -99 -64 -104 0 -6 27 -11 60 -11 33 -1 65 -3 70 -4 6 -1 24 -3 40 -4
l30 -1 -42 -54 c-57 -72 -93 -89 -197 -94 -101 -5 -231 15 -231 34 0 25 77
220 103 261 42 66 70 83 142 83 34 0 83 -3 107 -6z m3633 -65 c6 -7 -26 -89
-35 -89 -4 0 -13 7 -21 16 -9 11 -22 14 -45 9 -31 -5 -35 -3 -54 36 l-22 42
86 -5 c47 -2 88 -7 91 -9z m-4045 -189 c0 -6 -14 -38 -31 -72 -35 -70 -32 -77
41 -79 25 -1 48 -1 53 0 20 3 2 -19 -43 -53 -62 -47 -86 -80 -96 -131 -11 -58
-43 -85 -101 -85 -26 1 -73 9 -103 20 -30 11 -70 19 -87 20 -18 0 -33 5 -33
11 0 6 14 43 31 82 17 39 40 95 50 125 37 106 66 136 154 158 62 15 165 18
165 4z m805 -12 c5 -5 -4 -170 -19 -343 -2 -26 -8 -31 -47 -43 -24 -7 -102
-15 -173 -19 l-129 -6 7 28 c4 16 12 67 17 114 12 109 25 156 55 208 37 65 61
74 181 70 56 -1 105 -5 108 -9z m-1176 -100 c-59 -152 -65 -163 -81 -162 -211
16 -292 28 -351 51 -48 19 -90 44 -83 50 2 2 69 15 147 29 79 13 191 38 249
54 148 41 144 41 119 -22z m3156 -9 c64 -17 152 -58 273 -127 62 -35 136 -70
164 -77 28 -8 55 -20 59 -27 4 -7 7 -13 6 -14 -1 0 -42 3 -91 8 -60 7 -103 17
-134 34 -25 13 -62 24 -83 24 -25 0 -61 12 -104 36 -68 37 -93 40 -179 18 -20
-5 -27 1 -50 40 -15 25 -36 51 -48 57 l-21 12 24 13 c29 16 129 18 184 3z
m-2375 -66 c-1 -29 -30 -196 -41 -231 -25 -85 -115 -141 -260 -162 -74 -11
-160 -13 -183 -4 -14 5 -14 9 -1 34 8 15 22 61 31 101 20 88 52 155 95 198 54
55 83 64 179 59 47 -3 96 -2 110 2 34 11 70 12 70 3z m2159 -14 c62 -22 59
-77 -8 -126 -63 -47 -91 -23 -91 76 l0 61 34 0 c18 0 47 -5 65 -11z m282 -108
l23 -18 -38 -47 c-21 -25 -44 -46 -50 -46 -6 0 -26 25 -45 56 -39 65 -34 74
40 74 31 0 55 -6 70 -19z m-3501 -15 c0 -2 -20 -16 -45 -31 -70 -40 -112 -82
-166 -161 l-49 -73 -72 20 c-184 50 -326 107 -301 122 4 2 49 8 98 11 137 10
300 44 395 81 74 29 140 43 140 31z m164 -8 c-4 -7 -23 -34 -41 -60 l-35 -48
42 0 c47 0 47 2 0 -63 -19 -26 -46 -78 -60 -115 l-26 -67 -84 1 c-47 0 -111 4
-142 9 l-57 8 38 46 c21 25 52 71 69 101 34 61 67 95 130 134 81 50 183 83
166 54z m3556 -53 c15 -18 -2 -51 -30 -58 -32 -8 -68 62 -44 86 8 8 61 -12 74
-28z m-1882 10 c4 -3 -37 -274 -54 -357 -5 -23 -14 -30 -57 -43 -28 -8 -85
-15 -126 -15 -42 0 -102 -7 -134 -14 l-59 -14 6 27 c4 14 11 76 16 138 16 190
56 246 200 280 50 11 196 10 208 -2z m2220 -41 c6 -40 -77 -114 -128 -114 -15
0 -20 6 -20 29 0 16 -3 42 -6 59 -5 26 -3 31 22 40 16 6 52 10 79 9 43 -2 50
-5 53 -23z m202 -21 c0 -3 -8 -31 -17 -62 -20 -62 -78 -131 -111 -131 -21 0
-21 0 -2 58 10 31 22 73 27 92 7 28 15 36 38 41 42 9 65 10 65 2z m-3890 -34
c19 -5 61 -10 93 -10 l57 1 -26 -53 c-15 -28 -42 -65 -60 -80 -47 -39 -44 -51
11 -45 l45 6 -40 -51 c-22 -27 -45 -68 -52 -91 -16 -59 -33 -74 -96 -87 -59
-12 -228 -9 -250 5 -11 6 -11 11 1 24 25 28 54 94 72 162 22 81 59 161 84 184
20 19 85 45 111 46 8 0 31 -5 50 -11z m1009 -31 c-17 -34 -20 -52 -15 -96 6
-53 5 -55 -60 -163 -36 -60 -75 -116 -87 -124 -29 -19 -135 -43 -224 -51 l-72
-7 14 59 c8 33 14 93 15 135 0 137 36 208 125 244 59 25 160 43 248 44 l77 1
-21 -42z m1789 -51 c6 -55 -51 -79 -82 -35 -24 34 -20 56 12 61 53 9 67 4 70
-26z m-3568 -68 c0 -6 -21 -39 -46 -72 -25 -33 -70 -103 -101 -154 -63 -105
-45 -100 -188 -56 -44 14 -96 33 -115 43 -35 18 -77 57 -69 64 2 2 40 13 83
25 87 24 265 97 329 136 43 25 107 34 107 14z m1240 -197 c-26 -104 -50 -194
-54 -200 -14 -23 -347 -114 -362 -100 -3 3 -1 72 5 153 15 240 48 277 259 295
62 6 127 16 145 24 17 8 37 15 43 15 7 1 -6 -70 -36 -187z m2498 144 c2 -21
-1 -43 -6 -48 -16 -16 -90 10 -109 38 -23 36 3 54 77 51 33 -2 35 -4 38 -41z
m-3710 -47 c-6 -16 -8 -32 -5 -35 2 -3 23 3 46 12 33 13 59 15 119 10 76 -7
185 -23 209 -31 16 -5 -17 -66 -63 -115 -18 -19 -34 -39 -35 -45 0 -5 -42 -29
-92 -53 l-92 -43 -100 6 c-147 9 -171 16 -166 45 10 70 151 280 188 280 1 0
-3 -14 -9 -31z m2616 -26 c-2 -21 -9 -82 -14 -136 -18 -195 -50 -222 -278
-237 -81 -6 -160 -13 -176 -16 l-29 -7 6 44 c3 24 12 78 21 119 8 41 17 92 21
112 11 71 23 77 226 118 240 49 228 49 223 3z m1324 -56 l3 -47 -43 0 c-69 0
-110 40 -72 70 15 13 80 30 99 26 6 -2 11 -24 13 -49z m401 -89 c-57 -134 -99
-161 -179 -118 l-35 18 27 11 c14 5 29 15 33 21 10 17 176 160 185 160 5 0 -9
-42 -31 -92z m-2233 45 c-2 -10 -7 -47 -11 -83 -16 -167 -31 -212 -93 -289
-50 -61 -88 -75 -192 -68 -47 3 -104 2 -127 -2 -42 -8 -43 -8 -43 18 0 43 38
242 55 287 21 54 50 80 119 104 61 22 197 47 259 49 32 1 38 -2 33 -16z m2012
-24 c4 -38 -15 -79 -37 -79 -10 0 -29 9 -42 20 l-24 20 38 36 c42 39 60 40 65
3z m-3544 -81 c26 -6 74 -8 105 -5 l57 5 -8 -67 c-11 -96 -16 -113 -46 -143
l-26 -28 24 0 c23 0 22 -2 -15 -40 -22 -22 -55 -45 -75 -50 -19 -5 -100 -10
-179 -10 l-144 0 6 105 c13 224 86 281 301 233z m1051 -30 c-3 -18 -17 -93
-30 -166 -28 -155 -52 -213 -106 -249 -33 -22 -55 -27 -156 -34 -65 -5 -133
-13 -152 -18 -31 -10 -33 -9 -26 12 4 12 10 87 14 167 7 156 20 202 63 216 21
7 371 99 392 102 5 1 5 -13 1 -30z m-1427 -120 c-8 -13 -41 -67 -74 -121 -37
-61 -66 -99 -79 -102 -11 -2 -67 -7 -123 -10 l-104 -7 4 97 c3 93 4 98 32 122
29 25 33 25 140 20 80 -4 122 -2 151 7 62 21 70 20 53 -6z m862 -225 c-18
-104 -39 -195 -46 -204 -24 -27 -84 -40 -214 -49 -69 -4 -133 -11 -144 -15
-17 -7 -18 -4 -11 46 13 100 44 227 65 269 24 46 15 42 230 111 80 25 146 42
148 38 2 -5 -11 -93 -28 -196z m1520 102 c1 -17 6 -14 34 18 22 27 49 44 87
57 30 9 56 16 58 14 7 -6 -94 -176 -124 -209 -37 -40 -141 -75 -231 -78 l-59
-2 -3 84 c-4 106 8 137 57 151 20 5 43 10 51 10 8 0 35 11 60 24 l45 24 12
-36 c6 -20 12 -46 13 -57z m-305 -182 c-4 -41 -15 -75 -31 -98 -22 -33 -31
-65 -19 -65 3 0 48 18 101 40 53 22 92 34 87 28 -157 -206 -146 -198 -262
-198 -31 -1 -85 -7 -121 -15 -36 -7 -65 -13 -66 -12 0 1 2 79 6 172 4 106 10
178 18 193 8 14 65 49 150 91 l137 69 3 -72 c2 -39 0 -99 -3 -133z m-1665 52
c0 -13 -83 -301 -91 -316 -16 -31 -98 -51 -231 -56 l-128 -6 0 61 c0 85 19
211 36 245 20 37 69 57 168 66 99 10 246 13 246 6z m1306 -22 c-2 -10 -14 -94
-27 -188 -12 -93 -26 -180 -30 -193 -12 -31 -74 -57 -181 -76 -48 -8 -98 -22
-112 -31 -29 -19 -24 -30 -50 110 -25 135 -28 168 -16 220 25 111 93 154 260
165 173 11 162 12 156 -7z m803 -73 c-5 -48 -23 -89 -94 -222 -105 -195 -113
-207 -119 -187 -11 34 -36 174 -36 204 0 19 13 67 29 107 28 71 52 97 91 98 8
1 40 14 70 30 30 16 58 29 61 30 3 0 2 -27 -2 -60z m-1279 -92 c0 -29 5 -113
11 -187 13 -155 7 -181 -42 -206 -17 -9 -72 -21 -123 -26 -97 -10 -193 -24
-240 -35 l-28 -7 4 154 c4 171 9 188 75 250 58 56 120 81 238 99 107 16 105
17 105 -42z m-486 -115 c-3 -16 -8 -34 -10 -42 -3 -8 -5 -59 -5 -113 -1 -256
-30 -287 -273 -288 -128 0 -138 1 -131 18 5 9 10 77 12 151 5 162 20 204 81
220 66 18 317 80 325 80 4 1 5 -11 1 -26z m1444 -104 c-5 -65 -8 -74 -36 -96
-63 -48 -153 -205 -198 -344 -32 -98 -32 -98 -54 90 -13 103 -12 118 8 217 11
59 26 110 32 114 7 4 35 10 62 13 30 4 75 20 111 41 34 20 66 35 71 36 5 0 6
-32 4 -71z m-373 -151 c-4 -68 -13 -136 -20 -153 -18 -41 -80 -99 -140 -129
-82 -40 -230 -86 -287 -89 l-53 -2 -5 70 c-3 39 -2 101 1 138 10 113 49 147
195 170 99 16 140 33 177 72 13 15 41 29 67 34 79 15 73 24 65 -111z m-597
-194 c-8 -71 -23 -128 -53 -204 l-41 -105 -55 -22 c-68 -27 -162 -43 -254 -43
l-70 0 -3 98 c-3 115 9 175 48 236 39 61 85 83 206 96 54 6 128 19 164 29 36
10 66 17 68 16 1 -1 -3 -47 -10 -101z m567 -154 c-14 -41 -44 -105 -66 -142
-59 -97 -88 -176 -97 -260 l-8 -73 -28 85 c-24 70 -30 107 -33 211 l-5 125 64
18 c72 20 132 52 167 90 14 14 26 24 28 23 1 -2 -8 -37 -22 -77z m-322 -197
c10 -60 17 -119 17 -132 0 -14 -21 -46 -55 -82 -82 -89 -115 -143 -151 -247
-18 -52 -36 -97 -38 -100 -9 -9 -77 149 -87 201 -5 27 -9 88 -9 134 0 80 2 86
28 109 70 61 268 222 273 223 3 1 13 -47 22 -106z"/>
<path d="M3346 4008 c-9 -12 -16 -33 -16 -45 0 -27 3 -27 -50 -8 -49 17 -134
20 -176 5 -16 -6 -96 -21 -177 -34 -82 -14 -151 -27 -154 -30 -3 -2 3 -19 14
-36 18 -31 18 -32 -1 -46 -21 -15 -53 -19 -129 -15 -35 2 -72 -7 -145 -34 -53
-21 -98 -39 -100 -40 -2 -2 0 -15 4 -29 10 -42 61 -85 150 -126 72 -33 99 -54
222 -173 209 -201 275 -242 387 -237 102 5 245 0 285 -9 l35 -8 -36 -34 c-27
-26 -51 -37 -97 -47 -34 -7 -62 -17 -62 -23 0 -16 48 -29 105 -29 64 0 81 17
91 92 l7 49 76 -7 c42 -3 82 -7 89 -9 28 -9 9 31 -36 75 -71 72 -104 78 -273
50 -268 -44 -322 -26 -529 176 -75 73 -155 142 -180 154 -59 30 -170 109 -170
121 0 6 17 17 38 26 31 13 52 14 131 6 118 -13 144 -7 301 66 149 70 209 85
321 79 119 -6 162 -28 281 -145 54 -53 98 -91 98 -84 0 47 -97 180 -167 228
-47 32 -53 41 -63 89 -10 47 -15 54 -35 54 -13 0 -31 -10 -39 -22z"/>
<path d="M3171 3776 c-6 -8 -14 -37 -18 -66 -6 -52 -6 -52 -37 -46 -17 3 -66
23 -109 45 -88 44 -81 48 -61 -36 6 -20 4 -25 -7 -21 -30 12 -131 30 -136 24
-3 -3 8 -18 24 -34 33 -33 84 -46 223 -57 l85 -7 -19 21 c-11 12 -17 21 -14
21 2 0 43 -13 91 -29 48 -17 87 -27 87 -23 0 4 -11 24 -25 45 -14 20 -23 37
-20 37 3 0 59 -27 125 -60 66 -33 120 -57 120 -53 0 5 -4 24 -10 42 -5 19 -8
37 -5 39 2 2 49 -23 105 -57 70 -42 111 -61 134 -61 19 0 53 -7 76 -15 24 -8
45 -13 48 -11 2 3 -16 29 -42 58 -25 29 -46 56 -46 60 0 9 58 -8 85 -26 47
-31 67 -79 64 -158 l-2 -73 51 0 c35 1 57 7 71 19 36 33 23 116 -25 157 -18
15 -260 119 -278 119 -4 0 -5 -16 -1 -36 8 -45 11 -46 -126 68 -59 48 -111 88
-115 88 -5 0 -22 -25 -38 -55 -16 -30 -35 -55 -43 -55 -35 0 -93 36 -144 91
-47 49 -58 57 -68 45z"/>
<path d="M2864 3545 c-14 -35 6 -65 59 -89 l52 -23 23 28 c36 45 59 38 134
-42 l67 -72 58 12 c186 37 203 36 347 -15 38 -14 71 -22 74 -19 14 14 -74 76
-134 95 -79 24 -147 25 -245 5 l-72 -15 -51 49 c-79 74 -106 85 -171 70 -49
-11 -55 -10 -80 10 -32 25 -53 27 -61 6z"/>
<path d="M4985 3494 c-38 -7 -81 -19 -95 -26 -21 -11 2 -14 165 -18 l190 -5
70 -35 c51 -25 95 -60 163 -126 50 -51 92 -88 92 -82 0 22 -71 117 -125 166
-76 70 -145 108 -227 127 -80 18 -139 18 -233 -1z"/>
<path d="M4685 3394 c-37 -9 -75 -26 -75 -34 0 -4 60 -9 133 -12 126 -3 137
-5 198 -35 40 -20 109 -72 184 -139 70 -63 141 -117 171 -131 48 -22 58 -23
116 -13 35 5 67 10 71 10 5 0 5 5 2 10 -4 6 -38 10 -79 9 -40 -1 -82 4 -94 10
-12 6 -56 54 -97 107 -124 154 -237 215 -410 220 -55 2 -109 1 -120 -2z"/>
<path d="M3970 2648 c0 -8 7 -23 15 -34 8 -10 15 -29 15 -41 0 -19 20 -33 110
-78 60 -30 174 -93 252 -138 79 -46 154 -90 168 -97 28 -15 211 -62 217 -56 2
2 -62 39 -144 81 -299 156 -537 291 -584 333 -28 25 -49 38 -49 30z"/>
</g>
</svg>
